<?xml version="1.0" encoding="utf-8"?>
<!-- Generator: Adobe Illustrator 27.3.1, SVG Export Plug-In . SVG Version: 6.00 Build 0)  -->
<svg version="1.1" id="Layer_1" xmlns="http://www.w3.org/2000/svg" xmlns:xlink="http://www.w3.org/1999/xlink" x="0px" y="0px"
	 viewBox="0 0 720 720" style="enable-background:new 0 0 720 720;" xml:space="preserve">
<style type="text/css">
	.st0{fill:url(#SVGID_1_);}
	.st1{fill:url(#SVGID_00000048497192052729263450000014222182863938486931_);}
	.st2{fill:url(#SVGID_00000170252630702540899370000003267165490040545939_);}
	.st3{fill:url(#SVGID_00000103973912471141196770000016549242323058087094_);}
</style>
<g>
	<g>
		<linearGradient id="SVGID_1_" gradientUnits="userSpaceOnUse" x1="205.4071" y1="431.0961" x2="323.2052" y2="246.8134">
			<stop  offset="0" style="stop-color:#B52D57"/>
			<stop  offset="0.7235" style="stop-color:#007493"/>
			<stop  offset="0.8311" style="stop-color:#709FB6"/>
			<stop  offset="0.9472" style="stop-color:#CEDAE3"/>
			<stop  offset="1" style="stop-color:#FFFFFF"/>
		</linearGradient>
		<path class="st0" d="M193.49,428.32l0.02,0c44.28-4.6,84.17-84.57,107.38-142.21c0-0.03,0.02-0.07,0.04-0.1
			c10.07-30.1,17.39-54.56,17.84-56.06l-33.38,78.41c-36.77,85.35-78.29,111.71-91.7,118.34
			C192.96,427.04,192.99,427.9,193.49,428.32z"/>
		
			<linearGradient id="SVGID_00000016063625985854791300000010803988493628328341_" gradientUnits="userSpaceOnUse" x1="227.0046" y1="408.1164" x2="277.8719" y2="326.4609">
			<stop  offset="0" style="stop-color:#E83F70"/>
			<stop  offset="1" style="stop-color:#2274A5"/>
		</linearGradient>
		<path style="fill:url(#SVGID_00000016063625985854791300000010803988493628328341_);" d="M193.51,428.32
			c0.17,0.14,0.38,0.23,0.64,0.21c43.86-1.96,64.17-37.12,64.17-37.12c13.14-21.46,29.99-67.75,42.57-105.3
			C277.68,343.75,237.79,423.72,193.51,428.32z"/>
		
			<linearGradient id="SVGID_00000108282023487369712870000000528543216778470322_" gradientUnits="userSpaceOnUse" x1="254.8833" y1="443.4519" x2="32.3386" y2="400.2816">
			<stop  offset="0" style="stop-color:#B52D57"/>
			<stop  offset="0.7933" style="stop-color:#007595"/>
			<stop  offset="0.808" style="stop-color:#2683A1"/>
			<stop  offset="0.8335" style="stop-color:#629AB4"/>
			<stop  offset="0.8597" style="stop-color:#8DB2C7"/>
			<stop  offset="0.8861" style="stop-color:#B1C9D7"/>
			<stop  offset="0.9129" style="stop-color:#CFDCE5"/>
			<stop  offset="0.94" style="stop-color:#E6ECF1"/>
			<stop  offset="0.9678" style="stop-color:#F7F9FB"/>
			<stop  offset="0.9972" style="stop-color:#FFFFFF"/>
		</linearGradient>
		<path style="fill:url(#SVGID_00000108282023487369712870000000528543216778470322_);" d="M39.68,360.67
			c0.53,0.78,16.6,24.84,39.18,51.9c103.49,109.63,157.04,34.93,160.88,29.22c0.03-0.05,0.05-0.1,0.09-0.14
			c0.09-0.12,0.12-0.19,0.12-0.19c12.96-20.94,20.28-40.98,20.28-40.98C171.44,513.54,41.67,362.99,39.68,360.67z"/>
		
			<linearGradient id="SVGID_00000132082972268839980510000006512829185227624086_" gradientUnits="userSpaceOnUse" x1="231.1834" y1="468.6994" x2="113.3853" y2="447.9509">
			<stop  offset="0" style="stop-color:#E83F70"/>
			<stop  offset="1" style="stop-color:#2274A5"/>
		</linearGradient>
		<path style="fill:url(#SVGID_00000132082972268839980510000006512829185227624086_);" d="M78.86,412.57
			c25.59,30.66,59.56,65.17,88.67,73.9c30.68,9.2,55.89-18.36,72.21-44.68C235.9,447.51,182.35,522.21,78.86,412.57z"/>
	</g>
	<g>
		<path d="M370.34,384.43c2.15,0,3.93-1.46,4.47-3.44h257.37c0.66,0,1.2-0.54,1.2-1.2s-0.54-1.2-1.2-1.2H374.8
			c-0.53-1.98-2.32-3.44-4.47-3.44c-2.56,0-4.64,2.08-4.64,4.64v0C365.7,382.36,367.78,384.43,370.34,384.43z"/>
		<path d="M628.74,480.77c-2.15,0-3.93,1.46-4.47,3.44H366.9c-0.66,0-1.2,0.54-1.2,1.2s0.54,1.2,1.2,1.2h257.37
			c0.53,1.98,2.32,3.44,4.47,3.44c2.56,0,4.64-2.08,4.64-4.64S631.3,480.77,628.74,480.77z"/>
		<polygon points="318.76,464.96 359.63,464.96 359.63,450.02 336.48,450.02 336.48,438.81 358.31,438.81 358.31,424.45 
			336.48,424.45 336.48,412.93 359.63,412.93 359.63,398.25 318.76,398.25 		"/>
		<polygon points="412.53,412.93 412.53,398.25 371.66,398.25 371.66,464.96 389.38,464.96 389.38,438.81 411.21,438.81 
			411.21,424.45 389.38,424.45 389.38,412.93 		"/>
		<polygon points="463.29,412.93 463.29,398.25 422.42,398.25 422.42,464.96 440.14,464.96 440.14,438.81 461.97,438.81 
			461.97,424.45 440.14,424.45 440.14,412.93 		"/>
		<polygon points="514.05,412.93 514.05,398.25 473.18,398.25 473.18,464.96 514.05,464.96 514.05,450.02 490.9,450.02 
			490.9,438.81 512.73,438.81 512.73,424.45 490.9,424.45 490.9,412.93 		"/>
		<path d="M543.58,422.02c0.7-1.38,1.61-2.71,2.73-3.99c3.28-3.56,7.52-5.33,12.71-5.33c2.76,0,5.44,0.62,8.02,1.87
			c2.31,1.28,4.77,3.32,7.38,6.15v-19.87c-2.76-1.34-5.63-2.4-8.6-3.19c-3.01-0.67-5.89-1-8.65-1c-4.83,0-9.21,0.81-13.16,2.42
			c-3.98,1.58-7.56,4.01-10.74,7.29c-1.85,1.95-3.36,3.82-4.53,5.63c-1.17,1.81-2.13,3.73-2.89,5.76c-1.7,4.22-2.55,8.86-2.55,13.9
			c0,6.29,1.3,12.02,3.91,17.18c2.61,4.98,6.39,9.17,11.36,12.58c2.49,1.76,5.31,3.07,8.47,3.94c3.16,0.87,6.53,1.3,10.11,1.3
			c2.82,0,5.71-0.35,8.66-1.05c2.37-0.52,5.24-1.56,8.61-3.14v-19.91c-2.61,2.89-5.07,4.92-7.38,6.1c-2.61,1.31-5.29,1.96-8.02,1.96
			c-5.1,0-9.31-1.75-12.62-5.24c-3.28-3.55-4.92-8-4.92-13.35c0-1.79,0.18-3.56,0.52-5.31C542.35,424.96,542.88,423.4,543.58,422.02
			z"/>
		<polygon points="612.47,464.96 612.47,414.02 627.42,414.02 627.42,398.25 579.35,398.25 579.35,414.02 594.29,414.02 
			594.29,464.96 		"/>
		<path d="M679.13,435.57c-0.88-2.37-2.1-4.33-3.65-5.88c-2.37-2.46-7.26-4.68-14.67-6.65c-0.18-0.06-0.32-0.1-0.41-0.11
			c-0.09-0.02-0.2-0.04-0.32-0.07c-3.43-0.91-5.77-1.87-7.02-2.87c-1.18-1.06-1.78-2.4-1.78-4.01c0-1.67,0.68-3.01,2.05-4.01
			c1.42-1.06,3.2-1.6,5.32-1.6c2.09,0,4.23,0.44,6.42,1.32c2.25,0.94,4.37,2.28,6.37,4.01l5.71-13.08
			c-2.95-1.98-6.08-3.46-9.37-4.47c-3.12-1-6.61-1.5-10.47-1.5c-6.83,0-12.35,2.02-16.57,6.06c-4.28,4.01-6.42,9.2-6.42,15.59
			c0,4.92,1.36,8.81,4.09,11.66c2.7,2.8,7.29,5.07,13.78,6.83c4.76,1.28,7.84,2.51,9.24,3.69c1.3,1.25,1.96,2.96,1.96,5.15
			c0,2.01-0.79,3.66-2.37,4.97c-1.58,1.31-3.56,1.96-5.96,1.96c-2.55,0-5.16-0.76-7.83-2.28c-2.55-1.49-5.22-3.78-8.01-6.88
			l-8.19,13.53c3.61,3.43,7.28,5.93,11,7.48c3.72,1.55,7.95,2.32,12.69,2.32c7.72,0,13.91-2.14,18.59-6.42
			c4.65-4.35,6.97-10.04,6.97-17.09C680.32,440.37,679.92,437.82,679.13,435.57z"/>
	</g>
</g>
</svg>
